<svg width="16" height="17" viewBox="0 0 16 17" fill="none" xmlns="http://www.w3.org/2000/svg">
<path fill-rule="evenodd" clip-rule="evenodd" d="M10.0081 7.58685V4.5229C10.0081 4.01751 10.4245 3.61011 10.9355 3.61011H11.8387C12.3497 3.61011 12.7661 4.01751 12.7661 4.5229V4.93569H13.4194C13.9304 4.93569 14.3468 5.34309 14.3468 5.84848V9.13336H14.75V8.0857C14.6233 8.07353 14.5242 7.96676 14.5242 7.83685C14.5242 7.69878 14.6361 7.58685 14.7742 7.58685C15.0357 7.58685 15.25 7.79634 15.25 8.05778V9.16243C15.25 9.42388 15.0357 9.63336 14.7742 9.63336H14.3468V11.3717C14.3468 11.8771 13.9304 12.2845 13.4194 12.2845H12.7661V12.6973C12.7661 13.2027 12.3497 13.6101 11.8387 13.6101H10.9355C10.4245 13.6101 10.0081 13.2027 10.0081 12.6973V9.63336H5.99194V12.6973C5.99194 13.2027 5.57554 13.6101 5.06452 13.6101H4.16129C3.65026 13.6101 3.23387 13.2027 3.23387 12.6973V12.2845H2.58065C2.06962 12.2845 1.65323 11.8771 1.65323 11.3717V9.63336H1.22581C0.964257 9.63336 0.75 9.42388 0.75 9.16243V8.05778C0.75 7.79634 0.964257 7.58685 1.22581 7.58685C1.36388 7.58685 1.47581 7.69878 1.47581 7.83685C1.47581 7.96676 1.37672 8.07353 1.25 8.0857V9.13336H1.65323V5.84848C1.65323 5.34309 2.06962 4.93569 2.58065 4.93569H3.23387V4.5229C3.23387 4.01751 3.65026 3.61011 4.16129 3.61011H5.06452C5.57554 3.61011 5.99194 4.01751 5.99194 4.5229V9.13336H10.0081V8.08685H6.87097C6.7329 8.08685 6.62097 7.97492 6.62097 7.83685C6.62097 7.69878 6.7329 7.58685 6.87097 7.58685H10.0081ZM12.2661 12.0345V5.18569V4.5229C12.2661 4.29612 12.076 4.11011 11.8387 4.11011H10.9355C10.6982 4.11011 10.5081 4.29612 10.5081 4.5229V12.6973C10.5081 12.9241 10.6982 13.1101 10.9355 13.1101H11.8387C12.076 13.1101 12.2661 12.9241 12.2661 12.6973V12.0345ZM12.7661 11.7845H13.4194C13.6567 11.7845 13.8468 11.5985 13.8468 11.3717V5.84848C13.8468 5.62171 13.6567 5.43569 13.4194 5.43569H12.7661V11.7845ZM3.73387 5.18569V12.0345V12.6973C3.73387 12.9241 3.92399 13.1101 4.16129 13.1101H5.06452C5.30181 13.1101 5.49194 12.9241 5.49194 12.6973V4.5229C5.49194 4.29612 5.30181 4.11011 5.06452 4.11011H4.16129C3.92399 4.11011 3.73387 4.29612 3.73387 4.5229V5.18569ZM3.23387 5.43569H2.58065C2.34335 5.43569 2.15323 5.62171 2.15323 5.84848V11.3717C2.15323 11.5985 2.34335 11.7845 2.58065 11.7845H3.23387V5.43569Z" fill="#1A1D23"/>
</svg>
