<svg width="16" height="17" viewBox="0 0 16 17" fill="none" xmlns="http://www.w3.org/2000/svg">
<path fill-rule="evenodd" clip-rule="evenodd" d="M9.32143 11.2033V13.8484H10.25V11.2033H9.32143ZM8.82143 11.2033V10.7033V9.98553C8.82143 9.45739 8.39674 9.02586 7.88095 9.02586C7.36516 9.02586 6.94048 9.45739 6.94048 9.98553V15.3H8.82143V14.3484V13.8484V11.2033ZM9.32143 10.7033H10.25V9.98553C10.25 9.18303 10.8967 8.52586 11.6905 8.52586C12.4842 8.52586 13.131 9.18303 13.131 9.98553V10.7033H14.0595V9.98553C14.0595 9.18303 14.7063 8.52586 15.5 8.52586V9.02586C14.9842 9.02586 14.5595 9.45739 14.5595 9.98553V15.3H15.5V15.8H14.3095C14.1715 15.8 14.0595 15.6881 14.0595 15.55V14.3484H13.131V15.55C13.131 15.6881 13.019 15.8 12.881 15.8H10.5C10.3619 15.8 10.25 15.6881 10.25 15.55V14.3484H9.32143V15.55C9.32143 15.6881 9.2095 15.8 9.07143 15.8H6.69048C6.55241 15.8 6.44048 15.6881 6.44048 15.55V9.98553C6.44048 9.18303 7.08722 8.52586 7.88095 8.52586C8.67469 8.52586 9.32143 9.18303 9.32143 9.98553V10.7033ZM10.75 14.3484V15.3H12.631V14.3484V13.8484V11.2033V10.7033V9.98553C12.631 9.45739 12.2063 9.02586 11.6905 9.02586C11.1747 9.02586 10.75 9.45739 10.75 9.98553V10.7033V11.2033V13.8484V14.3484ZM13.131 11.2033V13.8484H14.0595V11.2033H13.131ZM5.27381 4.82343L6.26159 4.07064L6.56466 4.46832L5.27381 5.45207V12.8888C5.27381 13.0268 5.16188 13.1388 5.02381 13.1388H0.25V12.6388H4.77381V2.96134H5.27381V4.82343ZM5.02381 0.300049C6.39444 0.300049 7.51915 1.36314 7.64337 2.7194C8.82973 2.71969 9.79762 3.70336 9.79762 4.90489C9.79762 6.10659 8.82945 7.09037 7.64286 7.09037H5.96429V6.59037H7.64286C8.5515 6.59037 9.29762 5.83222 9.29762 4.90489C9.29762 3.97756 8.5515 3.2194 7.64286 3.2194H7.40476C7.26669 3.2194 7.15476 3.10747 7.15476 2.9694C7.15476 1.77047 6.19968 0.800049 5.02381 0.800049C3.84794 0.800049 2.89286 1.77047 2.89286 2.9694C2.89286 3.10747 2.78093 3.2194 2.64286 3.2194H2.40476C1.49612 3.2194 0.75 3.97756 0.75 4.90489C0.75 5.83222 1.49612 6.59037 2.40476 6.59037H4.08333V7.09037H2.40476C1.21817 7.09037 0.25 6.10659 0.25 4.90489C0.25 3.70336 1.21789 2.71969 2.40425 2.7194C2.52847 1.36314 3.65318 0.300049 5.02381 0.300049Z" fill="#1A1D23"/>
</svg>
