<svg width="16" height="17" viewBox="0 0 16 17" fill="none" xmlns="http://www.w3.org/2000/svg">
<path fill-rule="evenodd" clip-rule="evenodd" d="M5.42403 10.4246H7.75862C7.89669 10.4246 8.00862 10.5366 8.00862 10.6746C8.00862 10.8127 7.89669 10.9246 7.75862 10.9246H4.86207C4.64553 10.9246 4.53139 10.6681 4.67638 10.5072L6.52603 8.45621C6.54683 8.4359 6.58579 8.39576 6.63675 8.33956C6.72239 8.24512 6.80808 8.14194 6.88759 8.03413C7.01825 7.85695 7.11822 7.68586 7.17523 7.53246C7.20968 7.43976 7.22693 7.35723 7.22694 7.2854C7.23321 6.54704 6.85168 6.20688 6.16962 6.20688C5.59055 6.20688 5.11207 6.69661 5.11207 7.28753C5.11207 7.4256 5.00014 7.53753 4.86207 7.53753C4.724 7.53753 4.61207 7.4256 4.61207 7.28753C4.61207 6.42304 5.31177 5.70688 6.16962 5.70688C7.11665 5.70688 7.73568 6.25879 7.72693 7.28753C7.72693 7.4221 7.69773 7.56184 7.64391 7.70664C7.56832 7.91004 7.44607 8.11925 7.29 8.33088C7.1997 8.45334 7.10344 8.56923 7.00714 8.67543C6.94894 8.73961 6.903 8.78695 6.88634 8.8025L5.42403 10.4246ZM10.6034 6.19882V9.35599H11.0776C11.2157 9.35599 11.3276 9.46792 11.3276 9.60599C11.3276 9.74407 11.2157 9.85599 11.0776 9.85599H10.6034V10.8157C10.6034 10.9537 10.4915 11.0657 10.3534 11.0657C10.2154 11.0657 10.1034 10.9537 10.1034 10.8157V9.85599H8C7.79846 9.85599 7.67976 9.62974 7.7943 9.46391L10.1477 6.05673C10.2871 5.85496 10.6034 5.95359 10.6034 6.19882ZM8.47652 9.35599H10.1034V7.00063L8.47652 9.35599ZM7.90133 1.1304C7.96433 1.10334 8.03567 1.10334 8.09867 1.1304C8.12828 1.14312 8.18727 1.16766 8.27366 1.20232C8.41867 1.26051 8.58709 1.32546 8.77693 1.39548C9.32024 1.5959 9.92532 1.79644 10.5761 1.98362C12.0723 2.41393 13.5776 2.70805 15.0167 2.80421C15.148 2.81299 15.25 2.92205 15.25 3.05366V8.36583C15.25 10.8588 13.9318 13.1649 11.786 14.4256L8.12665 16.5757C8.04846 16.6216 7.95154 16.6216 7.87335 16.5757L4.21405 14.4256C2.06825 13.1649 0.75 10.8588 0.75 8.36583V3.05366C0.75 2.92205 0.852024 2.81299 0.983332 2.80421C2.42244 2.70805 3.92775 2.41393 5.42389 1.98362C6.07468 1.79644 6.67976 1.5959 7.22307 1.39548C7.41291 1.32546 7.58133 1.26051 7.72634 1.20232C7.81273 1.16766 7.87172 1.14312 7.90133 1.1304ZM8 1.63094C7.97455 1.64135 7.94537 1.65318 7.91254 1.66636C7.76325 1.72626 7.59045 1.7929 7.39611 1.86459C6.8418 2.06906 6.2252 2.27342 5.5621 2.46414C4.11441 2.88052 2.65663 3.17236 1.25 3.28588V8.36583C1.25 10.6816 2.47446 12.8237 4.46734 13.9945L8 16.0701L11.5327 13.9945C13.5255 12.8237 14.75 10.6816 14.75 8.36583V3.28588C13.3434 3.17236 11.8856 2.88052 10.4379 2.46414C9.7748 2.27342 9.1582 2.06906 8.60389 1.86459C8.40955 1.7929 8.23675 1.72626 8.08746 1.66636C8.05463 1.65318 8.02545 1.64135 8 1.63094Z" fill="#1A1D23"/>
</svg>
