<svg width="16" height="17" viewBox="0 0 16 17" fill="none" xmlns="http://www.w3.org/2000/svg">
<path fill-rule="evenodd" clip-rule="evenodd" d="M12.5 11.4501H10.5V13.4501H14.5V11.4501H12.5ZM13 10.9501H14.5C14.7761 10.9501 15 11.1739 15 11.4501V13.4501C15 13.7262 14.7761 13.9501 14.5 13.9501H10.5C10.4089 13.9501 10.3235 13.9257 10.25 13.8832C10.1765 13.9257 10.0911 13.9501 10 13.9501H6C5.90893 13.9501 5.82354 13.9257 5.75 13.8832C5.67646 13.9257 5.59107 13.9501 5.5 13.9501H1.5C1.22386 13.9501 1 13.7262 1 13.4501V11.4501C1 11.1739 1.22386 10.9501 1.5 10.9501H3.5V8.95007H1.5C1.22386 8.95007 1 8.72622 1 8.45007V6.45007C1 6.17393 1.22386 5.95007 1.5 5.95007H3.5V3.95007C3.5 3.67393 3.72386 3.45007 4 3.45007H8C8.09107 3.45007 8.17646 3.47442 8.25 3.51696C8.32354 3.47442 8.40893 3.45007 8.5 3.45007H12.5C12.7761 3.45007 13 3.67393 13 3.95007V5.95007H14.5C14.7761 5.95007 15 6.17393 15 6.45007V8.45007C15 8.72622 14.7761 8.95007 14.5 8.95007H13V10.9501ZM10 13.4501V11.4501H8.5H8H6V13.4501H10ZM12.5 10.9501V8.95007H10.5H10H8.5V10.9501H10H10.5H12.5ZM5.5 11.4501H4H1.5V13.4501H5.5V11.4501ZM8 10.9501V8.95007H6H5.5H4V10.9501H5.5H6H8ZM8.5 8.45007H10V6.45007H8.5H8H6V8.45007H8H8.5ZM10.5 8.45007H12.5H14.5V6.45007H12.5H10.5V8.45007ZM4 8.45007H5.5V6.45007H4H1.5V8.45007H4ZM12.5 5.95007V3.95007H8.5V5.95007H10H10.5H12.5ZM8 5.95007V3.95007H4V5.95007H5.5H6H8Z" fill="#1A1D23"/>
</svg>
