<svg width="17" height="17" viewBox="0 0 17 17" fill="none" xmlns="http://www.w3.org/2000/svg">
<path fill-rule="evenodd" clip-rule="evenodd" d="M3.95019 7.49794C3.21766 7.66364 2.27582 6.52594 2.18917 5.4251C2.07707 3.99302 2.80263 3.09265 3.81258 3.16578C4.78935 3.23651 5.48494 4.19104 5.31031 5.44928C5.14583 6.63285 4.65327 7.33947 3.95019 7.49794ZM3.77647 3.66448C3.09877 3.6154 2.59772 4.23715 2.68765 5.38603C2.75359 6.22359 3.47347 7.09314 3.84006 7.01022C4.3094 6.90444 4.67646 6.37784 4.81506 5.3805C4.95146 4.39776 4.45279 3.71345 3.77647 3.66448ZM3.92056 13.3228C2.99754 13.1154 2.55718 12.9171 2.10052 12.3796C0.678868 10.9709 2.37545 8.56517 4.67101 8.5194C5.04618 8.51212 5.29621 8.41609 5.7353 8.15756C5.80733 8.11501 5.84573 8.09237 5.88081 8.07194C5.98714 8.01006 6.0703 7.9646 6.15503 7.92345C7.40005 7.31981 9.48301 8.3781 9.85125 9.75479C9.86917 9.82186 9.88513 9.89101 9.89962 9.96345C9.92985 10.1146 9.94456 10.2164 9.98087 10.4995C10.0306 10.8871 10.0647 11.0589 10.1213 11.1951C10.6083 11.9865 10.8641 12.7889 10.8582 13.5343C10.8479 14.8455 10.0036 15.9576 8.75959 15.7531C7.87599 15.6476 7.42797 15.4043 6.88056 14.8546C6.86584 14.8398 6.67248 14.6429 6.6136 14.5848C6.51013 14.4826 6.41837 14.3982 6.32169 14.3179C6.1197 14.1501 5.90145 14.0056 5.63908 13.8733C5.12134 13.6125 4.82408 13.5259 3.92056 13.3228ZM2.45896 12.0309L2.47506 12.0482C2.8468 12.4886 3.19936 12.6483 4.03019 12.835C4.97326 13.0469 5.29767 13.1415 5.86412 13.4268C6.16097 13.5765 6.41075 13.7418 6.64122 13.9333C6.75002 14.0237 6.85194 14.1175 6.96485 14.2289C7.02705 14.2903 7.2226 14.4895 7.23486 14.5018C7.70759 14.9765 8.05561 15.1655 8.82974 15.2582C9.71946 15.4043 10.35 14.5736 10.3583 13.5304C10.3633 12.8859 10.1361 12.1732 9.67914 11.4259C9.58088 11.2 9.54072 10.998 9.48493 10.5631C9.45018 10.2921 9.43644 10.197 9.40933 10.0615C9.39685 9.99913 9.38326 9.94025 9.36821 9.88392C9.07869 8.8015 7.32636 7.9112 6.37332 8.37328C6.30193 8.40796 6.22879 8.44794 6.13233 8.50408C6.09871 8.52364 6.06184 8.54539 5.98899 8.58842C5.48219 8.88682 5.16153 9.00998 4.68084 9.01931C2.76297 9.05754 1.40073 10.9943 2.45896 12.0309ZM14.157 11.6928C13.2119 12.2641 11.7381 12.1614 11.446 11.4694C11.1655 10.8053 11.4527 9.9932 12.3187 9.17025C13.2395 8.2954 14.4205 8.30465 15.0471 9.05723C15.6949 9.83539 15.386 10.9496 14.157 11.6928ZM14.6628 9.37715C14.229 8.85605 13.3823 8.84942 12.6631 9.53272C11.9333 10.2262 11.7193 10.8314 11.9067 11.2749C12.0528 11.6211 13.1792 11.6996 13.8983 11.2649C14.8843 10.6687 15.0976 9.89931 14.6628 9.37715ZM13.1992 7.57663C12.3563 8.52442 10.7041 8.91299 10.1589 8.26607C9.62886 7.63718 9.66803 6.6494 10.3424 5.44505C11.0562 4.1698 12.3509 3.77946 13.2895 4.38916C14.2585 5.01855 14.2983 6.3394 13.1992 7.57663ZM13.0172 4.80847C12.3312 4.36288 11.3567 4.65669 10.7787 5.6893C10.1961 6.72969 10.1656 7.49823 10.5412 7.94384C10.8446 8.30383 12.158 7.99494 12.8254 7.24452C13.7358 6.21964 13.7068 5.25642 13.0172 4.80847ZM7.5423 6.78846C6.69988 6.71146 6.07329 5.13394 6.36858 3.90081C6.75442 2.29128 7.86043 1.56807 8.93102 2.00282C9.96809 2.42395 10.3887 3.7093 9.75114 5.02451C9.14871 6.26659 8.36147 6.86329 7.5423 6.78846ZM8.7429 2.46608C7.98097 2.15667 7.17444 2.68405 6.85481 4.01734C6.62103 4.99368 7.11913 6.2477 7.5878 6.29054C8.16836 6.34357 8.78083 5.87934 9.30123 4.80636C9.81744 3.74143 9.50085 2.77386 8.7429 2.46608Z" fill="#1A1D23"/>
</svg>
