<svg width="17" height="17" viewBox="0 0 17 17" fill="none" xmlns="http://www.w3.org/2000/svg">
<path fill-rule="evenodd" clip-rule="evenodd" d="M4.55954 9.55007H4.6H6.61835L7.55097 7.55007H5.49215L4.55954 9.55007ZM2.9 9.55007H4.00785L4.94046 7.55007H2.7546C2.45124 7.55007 2.34872 7.57035 2.24738 7.62455C2.17155 7.6651 2.11503 7.72162 2.07447 7.79745C2.02027 7.8988 2 8.00131 2 8.30467V8.79547C2 9.09884 2.02027 9.20135 2.07447 9.3027C2.11503 9.37852 2.17155 9.43505 2.24738 9.4756C2.34872 9.5298 2.45124 9.55007 2.7546 9.55007H2.9ZM5.1 10.0501V12.5659C5.1 12.7143 5.16591 12.855 5.27991 12.95L5.82009 13.4001C5.93409 13.4951 6 13.6359 6 13.7843V14.5501C6 14.8262 5.77614 15.0501 5.5 15.0501H2C1.72386 15.0501 1.5 14.8262 1.5 14.5501V13.7843C1.5 13.6359 1.56591 13.4951 1.67991 13.4001L2.22009 12.95C2.33409 12.855 2.4 12.7143 2.4 12.5659V10.0501C2.4 10.0444 2.40009 10.0388 2.40028 10.0332C2.22489 10.0125 2.11736 9.97308 2.01158 9.91651C1.84861 9.82935 1.72072 9.70146 1.63357 9.5385C1.54641 9.37553 1.5 9.20842 1.5 8.79547V8.30467C1.5 7.89172 1.54641 7.72461 1.63357 7.56165C1.72072 7.39869 1.84861 7.27079 2.01158 7.18364C2.17454 7.09649 2.34165 7.05007 2.7546 7.05007H14.2454C14.6583 7.05007 14.8255 7.09649 14.9884 7.18364C15.1514 7.27079 15.2793 7.39869 15.3664 7.56165C15.4536 7.72461 15.5 7.89172 15.5 8.30467V8.79547C15.5 9.20842 15.4536 9.37553 15.3664 9.5385C15.2793 9.70146 15.1514 9.82935 14.9884 9.91651C14.8255 10.0037 14.6583 10.0501 14.2454 10.0501H5.1ZM4.6 10.0501H2.9V12.5659C2.9 12.8627 2.76818 13.1441 2.54018 13.3341L2 13.7843V14.5501H5.5V13.7843L4.95982 13.3341C4.73182 13.1441 4.6 12.8627 4.6 12.5659V10.0501ZM12.551 7.55007H10.6027L9.67004 9.55007H11.6184L12.551 7.55007ZM13.1027 7.55007L12.17 9.55007H14.2454C14.5488 9.55007 14.6513 9.5298 14.7526 9.4756C14.8285 9.43505 14.885 9.37852 14.9255 9.3027C14.9797 9.20135 15 9.09884 15 8.79547V8.30467C15 8.00131 14.9797 7.8988 14.9255 7.79745C14.885 7.72162 14.8285 7.6651 14.7526 7.62455C14.6513 7.57035 14.5488 7.55007 14.2454 7.55007H13.1027ZM10.051 7.55007H8.10266L7.17004 9.55007H9.11835L10.051 7.55007ZM8.15466 0.813563L8.15545 0.800537C8.1904 0.802669 8.22506 0.804807 8.25943 0.806951C8.29381 0.804807 8.32847 0.802669 8.36341 0.800537L8.36421 0.813563C10.4971 0.949733 11.502 1.11284 11.6949 1.4333C11.8201 1.64116 12.0686 2.15175 12.4471 2.97677C13.0625 2.78538 13.5159 2.93726 13.707 3.4612C13.8931 3.97106 13.665 4.36153 13.1137 4.58943C13.3542 5.09808 13.491 5.45812 13.5265 5.68506C13.5399 5.77139 13.5462 5.88378 13.5463 6.02544L13.0463 6.02581C13.0462 5.90763 13.0413 5.81868 13.0324 5.76217C13.0017 5.56549 12.8368 5.15453 12.5412 4.55353L12.4072 4.2811L12.7003 4.20186C13.2024 4.06612 13.3344 3.89865 13.2373 3.63259C13.1391 3.36334 12.9109 3.31281 12.4124 3.52144L12.1889 3.61494L12.0884 3.39456C11.6648 2.46574 11.3881 1.89301 11.2665 1.69119C11.2101 1.59738 10.0998 1.42515 8.25943 1.30799C6.41902 1.42515 5.3088 1.59738 5.25232 1.69119C5.13081 1.89301 4.85411 2.46574 4.43047 3.39456L4.32996 3.61494L4.10651 3.52144C3.60794 3.31281 3.37979 3.36334 3.28154 3.63259C3.18446 3.89865 3.3165 4.06612 3.81858 4.20186L4.11166 4.2811L3.97766 4.55353C3.68206 5.15453 3.51712 5.56549 3.48642 5.76217C3.47905 5.80936 3.47431 5.87992 3.47295 5.97163L2.973 5.96423C2.97468 5.85113 2.98089 5.75882 2.9924 5.68506C3.02782 5.45812 3.16463 5.09808 3.40512 4.58943C2.8539 4.36153 2.6258 3.97106 2.81183 3.4612C3.00301 2.93726 3.45635 2.78538 4.07175 2.97677C4.45025 2.15175 4.69882 1.64116 4.82396 1.4333C5.01689 1.11284 6.02175 0.949733 8.15466 0.813563ZM5.69561 5.9797H5.19561C5.19561 5.76419 5.02091 5.58949 4.8054 5.58949C4.58989 5.58949 4.41519 5.76419 4.41519 5.9797H3.91519C3.91519 5.48805 4.31375 5.08949 4.8054 5.08949C5.29705 5.08949 5.69561 5.48805 5.69561 5.9797ZM12.866 5.9797H12.366C12.366 5.76419 12.1913 5.58949 11.9758 5.58949C11.7603 5.58949 11.5856 5.76419 11.5856 5.9797H11.0856C11.0856 5.48805 11.4841 5.08949 11.9758 5.08949C12.4674 5.08949 12.866 5.48805 12.866 5.9797ZM6.49106 5.9764V5.4764H10.2645V5.9764H6.49106ZM10.75 11.5501H15.25C15.3881 11.5501 15.5 11.662 15.5 11.8001C15.5 11.9381 15.3881 12.0501 15.25 12.0501H10.75C10.6119 12.0501 10.5 11.9381 10.5 11.8001C10.5 11.662 10.6119 11.5501 10.75 11.5501ZM12.75 13.0501H15.25C15.3881 13.0501 15.5 13.162 15.5 13.3001C15.5 13.4381 15.3881 13.5501 15.25 13.5501H12.75C12.6119 13.5501 12.5 13.4381 12.5 13.3001C12.5 13.162 12.6119 13.0501 12.75 13.0501ZM14.25 14.5501H15.25C15.3881 14.5501 15.5 14.662 15.5 14.8001C15.5 14.9381 15.3881 15.0501 15.25 15.0501H14.25C14.1119 15.0501 14 14.9381 14 14.8001C14 14.662 14.1119 14.5501 14.25 14.5501Z" fill="#1A1D23"/>
</svg>
