<svg width="17" height="17" viewBox="0 0 17 17" fill="none" xmlns="http://www.w3.org/2000/svg">
<path fill-rule="evenodd" clip-rule="evenodd" d="M11.8952 9.31263C11.8952 9.31639 11.8952 9.32016 11.8952 9.32393V10.5765C11.8952 11.062 11.5016 11.4555 11.0161 11.4555H5.98387C5.49836 11.4555 5.10484 11.062 5.10484 10.5765V9.32393C5.10475 9.32016 5.10475 9.31639 5.10484 9.31263V8.06034C5.10484 7.27206 4.4657 6.63292 3.67742 6.63292C2.88914 6.63292 2.25 7.27206 2.25 8.06034C2.25 8.84863 2.88914 9.48776 3.67742 9.48776C3.79892 9.48776 3.91877 9.47251 4.03463 9.44277C4.16836 9.40845 4.3046 9.48904 4.33893 9.62277C4.37325 9.75651 4.29266 9.89275 4.15892 9.92707C4.08288 9.94659 4.00559 9.96148 3.92742 9.97163V13.3023C3.92742 13.3957 4.00336 13.4716 4.09677 13.4716H12.9032C12.9966 13.4716 13.0726 13.3957 13.0726 13.3023V9.97167C12.995 9.96161 12.9182 9.94687 12.8426 9.92756C12.7088 9.89338 12.6281 9.75723 12.6623 9.62346C12.6964 9.48968 12.8326 9.40894 12.9664 9.44312C13.082 9.47266 13.2013 9.48776 13.3226 9.48776C14.1109 9.48776 14.75 8.84863 14.75 8.06034C14.75 7.27206 14.1109 6.63292 13.3226 6.63292C12.5343 6.63292 11.8952 7.27206 11.8952 8.06034V9.31263ZM5.60484 8.99725C5.80055 8.95127 6.01807 8.9056 6.25367 8.86276C6.9882 8.72921 7.7497 8.64905 8.5 8.64905C9.2503 8.64905 10.0118 8.72921 10.7463 8.86276C10.9819 8.9056 11.1995 8.95127 11.3952 8.99725V8.06034C11.3952 6.99592 12.2582 6.13292 13.3226 6.13292C14.387 6.13292 15.25 6.99592 15.25 8.06034C15.25 9.04005 14.5189 9.84911 13.5726 9.97169V13.3023C13.5726 13.6718 13.2728 13.9716 12.9032 13.9716H4.09677C3.72722 13.9716 3.42742 13.6718 3.42742 13.3023V9.97169C2.48108 9.84911 1.75 9.04005 1.75 8.06034C1.75 6.99592 2.61299 6.13292 3.67742 6.13292C4.74185 6.13292 5.60484 6.99592 5.60484 8.06034V8.99725ZM5.60484 9.51151V10.5765C5.60484 10.7858 5.77451 10.9555 5.98387 10.9555H11.0161C11.2255 10.9555 11.3952 10.7858 11.3952 10.5765V9.51151C11.3752 9.50659 11.3539 9.5014 11.3313 9.49598C11.1309 9.44788 10.9044 9.3997 10.6569 9.3547C9.9499 9.22615 9.21744 9.14905 8.5 9.14905C7.78256 9.14905 7.05011 9.22615 6.34311 9.3547C6.09558 9.3997 5.86912 9.44788 5.66873 9.49598C5.64613 9.5014 5.62482 9.50659 5.60484 9.51151ZM3.92742 5.37486H3.42742V4.49583C3.42742 2.81397 5.71673 1.52002 8.5 1.52002C11.2833 1.52002 13.5726 2.81397 13.5726 4.49583V5.37486H13.0726V4.49583C13.0726 3.16672 11.0438 2.02002 8.5 2.02002C5.9562 2.02002 3.92742 3.16672 3.92742 4.49583V5.37486ZM4.76613 14.52H5.94355V14.3507H6.44355V14.5603C6.44355 14.8143 6.23772 15.02 5.98387 15.02H4.72581C4.47196 15.02 4.26613 14.8143 4.26613 14.5603V14.3507H4.76613V14.52ZM11.0565 14.52H12.2339V14.3507H12.7339V14.5603C12.7339 14.8143 12.528 15.02 12.2742 15.02H11.0161C10.7623 15.02 10.5565 14.8143 10.5565 14.5603V14.3507H11.0565V14.52ZM7.87097 4.49583C7.87097 4.72731 7.6831 4.91518 7.45161 4.91518C7.22013 4.91518 7.03226 4.72731 7.03226 4.49583C7.03226 4.26434 7.22013 4.07647 7.45161 4.07647C7.6831 4.07647 7.87097 4.26434 7.87097 4.49583ZM9.96774 4.49583C9.96774 4.72731 9.77987 4.91518 9.54839 4.91518C9.3169 4.91518 9.12903 4.72731 9.12903 4.49583C9.12903 4.26434 9.3169 4.07647 9.54839 4.07647C9.77987 4.07647 9.96774 4.26434 9.96774 4.49583ZM7.87097 6.5926C7.87097 6.82408 7.6831 7.01196 7.45161 7.01196C7.22013 7.01196 7.03226 6.82408 7.03226 6.5926C7.03226 6.36112 7.22013 6.17325 7.45161 6.17325C7.6831 6.17325 7.87097 6.36112 7.87097 6.5926ZM9.96774 6.5926C9.96774 6.82408 9.77987 7.01196 9.54839 7.01196C9.3169 7.01196 9.12903 6.82408 9.12903 6.5926C9.12903 6.36112 9.3169 6.17325 9.54839 6.17325C9.77987 6.17325 9.96774 6.36112 9.96774 6.5926Z" fill="#1A1D23"/>
</svg>
