<svg width="17" height="17" viewBox="0 0 17 17" fill="none" xmlns="http://www.w3.org/2000/svg">
<path fill-rule="evenodd" clip-rule="evenodd" d="M14.0582 11.6825C13.5814 11.4456 13.2618 11.2015 13.0662 10.9868C12.9641 11.071 12.8355 11.1607 12.6783 11.2492C11.4663 11.9311 9.63706 11.9311 7.09845 10.8334C4.75918 9.82193 2.9712 9.76989 1.69443 10.2753C1.41538 10.3858 1.23726 10.4929 1.15761 10.5576C1.05043 10.6446 0.892981 10.6283 0.805941 10.5211C0.7189 10.414 0.735227 10.2565 0.842408 10.1695C0.960181 10.0738 1.18196 9.94046 1.51039 9.81044C2.91273 9.25528 4.83811 9.31132 7.29689 10.3745C9.69994 11.4135 11.3665 11.4135 12.4331 10.8134C12.6862 10.671 12.8364 10.5339 12.8972 10.4533C13.0092 10.305 13.2379 10.3263 13.3206 10.4926C13.3353 10.522 13.3861 10.5933 13.4871 10.694C13.6685 10.875 13.9282 11.0596 14.2807 11.2347C14.744 11.4649 15.3286 11.6583 16.0486 11.801C16.1841 11.8278 16.2721 11.9594 16.2452 12.0948C16.2184 12.2303 16.0868 12.3183 15.9514 12.2915C15.1893 12.1404 14.5627 11.9331 14.0582 11.6825ZM14.0582 14.0864C13.5814 13.8495 13.2618 13.6053 13.0662 13.3906C12.9641 13.4748 12.8355 13.5646 12.6783 13.653C11.4663 14.3349 9.63706 14.3349 7.09845 13.2372C4.75918 12.2258 2.9712 12.1737 1.69443 12.6792C1.41538 12.7897 1.23726 12.8968 1.15761 12.9614C1.05043 13.0485 0.892981 13.0322 0.805941 12.925C0.7189 12.8178 0.735227 12.6604 0.842408 12.5733C0.960181 12.4777 1.18196 12.3443 1.51039 12.2143C2.91273 11.6591 4.83811 11.7152 7.29689 12.7783C9.69994 13.8174 11.3665 13.8174 12.4331 13.2172C12.6862 13.0748 12.8364 12.9378 12.8972 12.8571C13.0092 12.7089 13.2379 12.7301 13.3206 12.8965C13.3353 12.9259 13.3861 12.9971 13.4871 13.0979C13.6685 13.2788 13.9282 13.4634 14.2807 13.6386C14.744 13.8687 15.3286 14.0621 16.0486 14.2048C16.1841 14.2317 16.2721 14.3633 16.2452 14.4987C16.2184 14.6341 16.0868 14.7221 15.9514 14.6953C15.1893 14.5442 14.5627 14.337 14.0582 14.0864ZM10.9253 6.52377L10.0984 7.61927C10.2219 7.67332 10.3581 7.73176 10.5058 7.79367C11.047 8.02058 11.6298 8.24752 12.2316 8.45924C12.9464 8.71069 13.6399 8.92349 14.2935 9.08527C14.9253 9.24167 15.5056 9.3467 16.0225 9.39339C16.16 9.40582 16.2614 9.52736 16.249 9.66487C16.2366 9.80238 16.115 9.90379 15.9775 9.89137C15.4329 9.84217 14.8282 9.73272 14.1733 9.57062C13.5029 9.40468 12.7945 9.18732 12.0657 8.9309C11.454 8.71571 10.8622 8.48527 10.3125 8.25479C10.1199 8.17407 9.94631 8.09907 9.7944 8.03169C9.70286 7.99109 9.63864 7.96193 9.60452 7.94611C9.46 7.8791 9.41418 7.69583 9.51015 7.56869L10.5263 6.22249C10.8478 5.79675 11.3519 5.54623 11.8871 5.54623H15.0323C15.429 5.54623 15.75 5.22727 15.75 4.83469C15.75 4.44211 15.429 4.12315 15.0323 4.12315H11.2915C10.6655 4.12315 10.0702 4.39156 9.65826 4.8593L7.97683 6.76841C7.304 7.5325 6.44815 8.11481 5.48868 8.46115L4.23014 8.91596C4.10028 8.96289 3.95698 8.89566 3.91005 8.76581C3.86313 8.63596 3.93035 8.49265 4.0602 8.44572L5.31884 7.99089C6.19924 7.67308 6.9844 7.13887 7.60159 6.43796L9.28304 4.52883C9.79003 3.9532 10.522 3.62315 11.2915 3.62315H15.0323C15.7044 3.62315 16.25 4.16525 16.25 4.83469C16.25 5.50413 15.7044 6.04623 15.0323 6.04623H11.8871C11.5086 6.04623 11.1522 6.22331 10.9253 6.52377ZM7.2984 4.35392C7.2984 5.81983 6.10288 7.00777 4.62904 7.00777C3.1552 7.00777 1.95969 5.81983 1.95969 4.35392C1.95969 2.888 3.1552 1.70007 4.62904 1.70007C6.10288 1.70007 7.2984 2.888 7.2984 4.35392ZM6.7984 4.35392C6.7984 3.16486 5.82745 2.20007 4.62904 2.20007C3.43063 2.20007 2.45969 3.16486 2.45969 4.35392C2.45969 5.54298 3.43063 6.50777 4.62904 6.50777C5.82745 6.50777 6.7984 5.54298 6.7984 4.35392Z" fill="#1A1D23"/>
</svg>
