<svg width="16" height="17" viewBox="0 0 16 17" fill="none" xmlns="http://www.w3.org/2000/svg">
<path fill-rule="evenodd" clip-rule="evenodd" d="M6.729 7.06461L7.71597 6.0616V5.01358L5.77883 2.82648C5.68728 2.72312 5.69686 2.56512 5.80021 2.47358C5.90357 2.38203 6.06157 2.39161 6.15312 2.49496L7.71597 4.25948V1.08008C7.71597 0.942007 7.8279 0.830078 7.96597 0.830078C8.10404 0.830078 8.21597 0.942007 8.21597 1.08008V4.25947L9.77883 2.49496C9.87037 2.39161 10.0284 2.38203 10.1317 2.47358C10.2351 2.56512 10.2447 2.72312 10.1531 2.82648L8.21597 5.01358V6.0616L9.20304 7.0647L10.4512 6.3324L11.3466 3.53425C11.3887 3.40275 11.5294 3.33026 11.6609 3.37234C11.7924 3.41442 11.8649 3.55513 11.8228 3.68663L11.0975 5.9532L13.8054 4.36445C13.9245 4.29458 14.0777 4.33448 14.1475 4.45357C14.2174 4.57265 14.1775 4.72584 14.0584 4.79571L11.3404 6.39039L13.6374 6.88594C13.7724 6.91505 13.8582 7.04807 13.8291 7.18303C13.7999 7.318 13.6669 7.40381 13.532 7.37469L10.703 6.76438L9.56468 7.43223L10.0297 7.90482C10.1255 8.00212 10.1255 8.15823 10.0297 8.25553L9.56476 8.72798L10.7029 9.39574L13.532 8.78542C13.6669 8.7563 13.7999 8.84211 13.8291 8.97708C13.8582 9.11204 13.7724 9.24506 13.6374 9.27418L11.3403 9.76973L14.0584 11.3645C14.1775 11.4343 14.2174 11.5875 14.1475 11.7066C14.0777 11.8257 13.9245 11.8656 13.8054 11.7957L11.0975 10.207L11.8228 12.4735C11.8649 12.605 11.7924 12.7457 11.6609 12.7878C11.5294 12.8299 11.3887 12.7574 11.3466 12.6259L10.4512 9.82777L9.20309 9.09548L8.21597 10.0985V11.1466L10.1531 13.3337C10.2447 13.437 10.2351 13.595 10.1317 13.6866C10.0284 13.7781 9.87037 13.7685 9.77883 13.6652L8.21597 11.9007V15.0801C8.21597 15.2181 8.10404 15.3301 7.96597 15.3301C7.8279 15.3301 7.71597 15.2181 7.71597 15.0801V11.9007L6.15312 13.6652C6.06157 13.7685 5.90357 13.7781 5.80021 13.6866C5.69686 13.595 5.68728 13.437 5.77883 13.3337L7.71597 11.1466V10.0985L6.72886 9.09548L5.4806 9.82785L4.58526 12.6259C4.54318 12.7574 4.40246 12.8299 4.27096 12.7878C4.13946 12.7457 4.06697 12.605 4.10904 12.4735L4.83428 10.2071L2.12655 11.7957C2.00746 11.8656 1.85428 11.8257 1.78441 11.7066C1.71454 11.5875 1.75444 11.4343 1.87353 11.3645L4.59157 9.76975L2.29443 9.27418C2.15946 9.24506 2.07366 9.11204 2.10277 8.97708C2.13189 8.84211 2.26491 8.7563 2.39987 8.78542L5.229 9.39576L6.36718 8.72798L5.90223 8.25553C5.80648 8.15823 5.80648 8.00212 5.90222 7.90482L6.36736 7.43213L5.22913 6.76432L2.39987 7.37469C2.26491 7.40381 2.13189 7.318 2.10277 7.18303C2.07366 7.04807 2.15946 6.91505 2.29443 6.88594L4.5917 6.39034L1.8736 4.79559C1.75451 4.72572 1.71461 4.57254 1.78448 4.45345C1.85435 4.33437 2.00753 4.29447 2.12662 4.36434L4.83424 5.95293L4.10904 3.68663C4.06697 3.55513 4.13946 3.41442 4.27096 3.37234C4.40246 3.33026 4.54318 3.40275 4.58526 3.53425L5.48055 6.33213L6.729 7.06461ZM6.95274 7.55011C6.95005 7.55298 6.94729 7.55578 6.94448 7.55851L6.43117 8.08016L6.94201 8.59924C6.94645 8.60343 6.95075 8.6078 6.95491 8.61235L7.96285 9.63655C7.96389 9.63654 7.96493 9.63653 7.96597 9.63653C7.96702 9.63653 7.96806 9.63654 7.96909 9.63655L8.97704 8.61235C8.98119 8.6078 8.9855 8.60343 8.98993 8.59924L9.50078 8.08016L8.98841 7.55946C8.985 7.55619 8.98168 7.55282 8.97845 7.54934L7.96912 6.52361C7.96807 6.52362 7.96702 6.52363 7.96597 6.52363C7.96492 6.52363 7.96388 6.52362 7.96283 6.52361L6.95274 7.55011Z" fill="#1A1D23"/>
</svg>
