<svg width="17" height="17" viewBox="0 0 17 17" fill="none" xmlns="http://www.w3.org/2000/svg">
<path fill-rule="evenodd" clip-rule="evenodd" d="M14.1753 8.24262H13.4354C12.7528 10.4655 10.6895 12.0813 8.25 12.0813C5.81039 12.0813 3.74714 10.4656 3.06462 8.24262H2.32475C2.24407 8.36413 2.1063 8.44424 1.95 8.44424C1.7016 8.44424 1.5 8.24192 1.5 7.99262C1.5 7.74333 1.7016 7.54101 1.95 7.54101C2.1063 7.54101 2.24407 7.62112 2.32475 7.74262H2.93681C2.87974 7.46482 2.84375 7.17929 2.83062 6.88779H2.625C2.48693 6.88779 2.375 6.77586 2.375 6.63779C2.375 6.49971 2.48693 6.38779 2.625 6.38779H13.875C14.0131 6.38779 14.125 6.49971 14.125 6.63779C14.125 6.77586 14.0131 6.88779 13.875 6.88779H13.6694C13.6562 7.17929 13.6203 7.46482 13.5632 7.74262H14.1753C14.2559 7.62112 14.3937 7.54101 14.55 7.54101C14.7984 7.54101 15 7.74333 15 7.99262C15 8.24192 14.7984 8.44424 14.55 8.44424C14.3937 8.44424 14.2559 8.36413 14.1753 8.24262ZM10.4975 14.291C10.5735 13.8748 10.8357 13.5239 11.1944 13.3285C11.1829 13.3118 11.1732 13.2935 11.1658 13.2737L10.7518 12.1661C10.7035 12.0368 10.7691 11.8928 10.8985 11.8444C11.0278 11.7961 11.1718 11.8617 11.2202 11.9911L11.6342 13.0986C11.6438 13.1243 11.6489 13.1505 11.6499 13.1765C11.7152 13.1669 11.782 13.162 11.85 13.162C12.6097 13.162 13.225 13.7795 13.225 14.541C13.225 15.3026 12.6097 15.92 11.85 15.92C11.1754 15.92 10.6148 15.4332 10.4975 14.791H5.014L4.65971 15.7561C4.61213 15.8857 4.46848 15.9522 4.33887 15.9046C4.20925 15.8571 4.14276 15.7134 4.19034 15.5838L5.47396 12.0872C5.52154 11.9576 5.66519 11.8911 5.7948 11.9387C5.92442 11.9862 5.99091 12.1299 5.94333 12.2595L5.19755 14.291H10.4975ZM3.33119 6.88779C3.46091 9.50201 5.61369 11.5813 8.25 11.5813C10.8862 11.5813 13.0391 9.50194 13.1688 6.88779L3.33119 6.88779ZM6.13666 3.93622C5.53631 3.83915 5.075 3.31444 5.075 2.68617C5.075 1.98943 5.64235 1.42004 6.3375 1.42004C6.47557 1.42004 6.5875 1.53197 6.5875 1.67004C6.5875 1.80812 6.47557 1.92004 6.3375 1.92004C5.9189 1.92004 5.575 2.26517 5.575 2.68617C5.575 3.10717 5.9189 3.4523 6.3375 3.4523H6.9C6.9126 3.4523 6.92498 3.45323 6.93709 3.45503C6.962 3.45322 6.98714 3.4523 7.0125 3.4523C7.15057 3.4523 7.2625 3.56423 7.2625 3.7023C7.2625 3.84037 7.15057 3.9523 7.0125 3.9523C6.71765 3.9523 6.475 4.19582 6.475 4.49262C6.475 4.78943 6.71765 5.03295 7.0125 5.03295H9.6C9.98577 5.03295 10.3 5.3483 10.3 5.73456C10.3 5.87263 10.1881 5.98456 10.05 5.98456C9.91193 5.98456 9.8 5.87263 9.8 5.73456C9.8 5.62404 9.70923 5.53295 9.6 5.53295H7.0125C6.4411 5.53295 5.975 5.06517 5.975 4.49262C5.975 4.28832 6.03435 4.09735 6.13666 3.93622ZM8.475 4.62972C8.14167 4.62972 8.14167 4.12972 8.475 4.12972C8.83173 4.12972 9.125 3.8354 9.125 3.4765C9.125 3.11759 8.83173 2.82327 8.475 2.82327H7.8C7.66193 2.82327 7.55 2.71134 7.55 2.57327C7.55 2.4352 7.66193 2.32327 7.8 2.32327H8.475C9.10827 2.32327 9.625 2.84185 9.625 3.4765C9.625 3.71857 9.54982 3.94376 9.42167 4.12972H10.05C10.8282 4.12972 11.425 4.77353 11.425 5.50875C11.425 5.64682 11.3131 5.75875 11.175 5.75875C11.0369 5.75875 10.925 5.64682 10.925 5.50875C10.925 5.04155 10.5433 4.62972 10.05 4.62972H8.475ZM12.725 14.541C12.725 14.0552 12.3332 13.662 11.85 13.662C11.3668 13.662 10.975 14.0552 10.975 14.541C10.975 15.0268 11.3668 15.42 11.85 15.42C12.3332 15.42 12.725 15.0268 12.725 14.541ZM5.24188 8.96883C5.32616 9.07819 5.30583 9.23517 5.19646 9.31945C5.0871 9.40373 4.93012 9.3834 4.84584 9.27403C4.56721 8.91248 4.34709 8.50828 4.19473 8.07595C4.14883 7.94573 4.2172 7.80296 4.34742 7.75706C4.47764 7.71117 4.62041 7.77953 4.6663 7.90975C4.80097 8.29187 4.99555 8.64918 5.24188 8.96883Z" fill="#1A1D23"/>
</svg>
