<svg width="16" height="17" viewBox="0 0 16 17" fill="none" xmlns="http://www.w3.org/2000/svg">
<path fill-rule="evenodd" clip-rule="evenodd" d="M5.45492 14.791H3.06557H1.25V15.42H14.75V14.791H12.9344H10.5451H10.0451H8.25H7.75H5.95492H5.45492ZM5.95492 14.291H7.75V9.37166H5.95492V14.291ZM5.45492 14.291V9.37166H3.31557V14.291H5.45492ZM10.0451 14.291V9.37166H8.25V14.291H10.0451ZM10.5451 9.37166V14.291H12.6844V9.37166H10.5451ZM10.0451 8.87166V1.92004H3.31557V8.87166H10.0451ZM10.5451 8.87166H12.6844V1.92004H10.5451V8.87166ZM13.1844 14.291H15C15.1381 14.291 15.25 14.4029 15.25 14.541V15.67C15.25 15.8081 15.1381 15.92 15 15.92H1C0.861929 15.92 0.75 15.8081 0.75 15.67V14.541C0.75 14.4029 0.861929 14.291 1 14.291H2.81557V9.37166H1.25V10.162H0.75V9.12166C0.75 8.98359 0.861929 8.87166 1 8.87166H2.81557V1.67004C2.81557 1.53197 2.9275 1.42004 3.06557 1.42004H12.9344C13.0725 1.42004 13.1844 1.53197 13.1844 1.67004V8.87166H15C15.1381 8.87166 15.25 8.98359 15.25 9.12166V10.162H14.75V9.37166H13.1844V14.291ZM11.1926 6.86359C11.1926 6.72552 11.3046 6.61359 11.4426 6.61359C11.5807 6.61359 11.6926 6.72552 11.6926 6.86359V8.06646C11.6926 8.20453 11.5807 8.31646 11.4426 8.31646C11.3046 8.31646 11.1926 8.20453 11.1926 8.06646V6.86359Z" fill="#1A1D23"/>
</svg>
