<svg width="17" height="17" viewBox="0 0 17 17" fill="none" xmlns="http://www.w3.org/2000/svg">
<path fill-rule="evenodd" clip-rule="evenodd" d="M8.4661 0.8301H12.9256C13.0637 0.8301 13.1756 0.942029 13.1756 1.0801V15.0801C13.1756 15.2182 13.0637 15.3301 12.9256 15.3301H4C3.86193 15.3301 3.75 15.2182 3.75 15.0801V1.0801C3.75 0.942029 3.86193 0.8301 4 0.8301H8.45942C8.46053 0.830085 8.46164 0.830078 8.46276 0.830078C8.46387 0.830078 8.46499 0.830085 8.4661 0.8301ZM8.21276 1.3301H4.25V14.8301H8.21276V1.3301ZM8.71276 1.3301V14.8301H12.6756V1.3301H8.71276ZM9.63281 7.49753C9.63281 7.35945 9.74474 7.24753 9.88281 7.24753C10.0209 7.24753 10.1328 7.35945 10.1328 7.49753V8.66281C10.1328 8.80088 10.0209 8.91281 9.88281 8.91281C9.74474 8.91281 9.63281 8.80088 9.63281 8.66281V7.49753ZM6.79279 7.49753C6.79279 7.35945 6.90472 7.24753 7.04279 7.24753C7.18086 7.24753 7.29279 7.35945 7.29279 7.49753V8.66281C7.29279 8.80088 7.18086 8.91281 7.04279 8.91281C6.90472 8.91281 6.79279 8.80088 6.79279 8.66281V7.49753Z" fill="#1A1D23"/>
</svg>
