<svg width="16" height="17" viewBox="0 0 16 17" fill="none" xmlns="http://www.w3.org/2000/svg">
<path fill-rule="evenodd" clip-rule="evenodd" d="M3.50806 2.68821C4.04222 2.16414 4.95067 1.83008 5.96774 1.83008C6.98481 1.83008 7.89327 2.16414 8.42742 2.68821V2.08008C8.42742 1.94201 8.53935 1.83008 8.67742 1.83008H9.58065C9.71872 1.83008 9.83065 1.94201 9.83065 2.08008V7.98917C9.83065 7.99611 9.83036 8.00299 9.82981 8.00979L10.4356 8.72112C10.8737 8.88553 11.1855 9.31006 11.1855 9.80735V12.7619C11.1855 12.9 11.0736 13.0119 10.9355 13.0119H10.2823V14.0119C10.2823 14.4621 9.91666 14.8301 9.46774 14.8301C9.01882 14.8301 8.65323 14.4621 8.65323 14.0119V13.0119H3.28226V14.0119C3.28226 14.4621 2.91666 14.8301 2.46774 14.8301C2.01882 14.8301 1.65323 14.4621 1.65323 14.0119V13.0119H1C0.861929 13.0119 0.75 12.9 0.75 12.7619V9.80735C0.75 9.31006 1.06176 8.88553 1.49991 8.72112L2.10568 8.00979C2.10512 8.00299 2.10484 7.99611 2.10484 7.98917V2.08008C2.10484 1.94201 2.21677 1.83008 2.35484 1.83008H3.25806C3.39614 1.83008 3.50806 1.94201 3.50806 2.08008V2.68821ZM3.01037 3.70511C3.00885 3.69395 3.00806 3.68256 3.00806 3.67099V2.33008H2.60484V7.42366L2.84192 7.14526C2.88942 7.08949 2.959 7.05735 3.03226 7.05735H3.57089C3.50123 6.83566 3.45968 6.61307 3.45968 6.39826C3.45968 6.16907 3.50698 5.93102 3.58526 5.69466C3.63166 5.55454 3.67848 5.44459 3.71159 5.37794C3.75382 5.29293 3.84056 5.23917 3.93548 5.23917H8C8.09493 5.23917 8.18166 5.29293 8.2239 5.37794C8.257 5.44459 8.30382 5.55454 8.35023 5.69466C8.4285 5.93102 8.47581 6.16907 8.47581 6.39826C8.47581 6.61307 8.43425 6.83566 8.36459 7.05735H8.90323C8.97649 7.05735 9.04606 7.08949 9.09356 7.14526L9.33065 7.42366V2.33008H8.92742V3.67099C8.92742 3.68256 8.92663 3.69395 8.92511 3.70511C8.92665 3.73145 8.92742 3.75796 8.92742 3.78462C8.92742 3.92269 8.81549 4.03462 8.67742 4.03462C8.53935 4.03462 8.42742 3.92269 8.42742 3.78462C8.42742 3.01193 7.34348 2.33008 5.96774 2.33008C4.592 2.33008 3.50806 3.01193 3.50806 3.78462C3.50806 3.92269 3.39614 4.03462 3.25806 4.03462C3.11999 4.03462 3.00806 3.92269 3.00806 3.78462C3.00806 3.75796 3.00884 3.73145 3.01037 3.70511ZM9.15323 13.0119V14.0119C9.15323 14.1867 9.29569 14.3301 9.46774 14.3301C9.63979 14.3301 9.78226 14.1867 9.78226 14.0119V13.0119H9.15323ZM2.78226 13.0119H2.15323V14.0119C2.15323 14.1867 2.29569 14.3301 2.46774 14.3301C2.63979 14.3301 2.78226 14.1867 2.78226 14.0119V13.0119ZM7.83546 7.05735C7.84836 7.02363 7.86194 6.98584 7.87558 6.94466C7.93843 6.75489 7.97581 6.56679 7.97581 6.39826C7.97581 6.22973 7.93843 6.04164 7.87558 5.85186C7.86194 5.81068 7.84836 5.77289 7.83546 5.73917H4.10002C4.08713 5.77289 4.07354 5.81068 4.0599 5.85186C3.99705 6.04164 3.95968 6.22973 3.95968 6.39826C3.95968 6.56679 3.99705 6.75489 4.0599 6.94466C4.07354 6.98584 4.08713 7.02363 4.10002 7.05735H7.83546ZM8 7.55735H3.93548H3.14773L2.21869 8.64826H9.71679L8.78776 7.55735H8ZM10.6855 9.80735C10.6855 9.44302 10.3926 9.14826 10.0323 9.14826H1.90323C1.54285 9.14826 1.25 9.44302 1.25 9.80735V12.5119H10.6855V9.80735ZM14.4457 12.0574L13.0808 10.5119H11.5887V10.0119H13.1935C13.2652 10.0119 13.3335 10.0427 13.3809 10.0964L15.1874 12.1419C15.3299 12.3033 15.2153 12.5574 15 12.5574H11.5887V12.0574H14.4457Z" fill="#1A1D23"/>
</svg>
