<svg width="16" height="17" viewBox="0 0 16 17" fill="none" xmlns="http://www.w3.org/2000/svg">
<path fill-rule="evenodd" clip-rule="evenodd" d="M8.09666 6.02002H3.5C3.36193 6.02002 3.25 5.90809 3.25 5.77002V1.27002C3.25 1.13195 3.36193 1.02002 3.5 1.02002H12.5C12.6381 1.02002 12.75 1.13195 12.75 1.27002V5.77002C12.75 5.90809 12.6381 6.02002 12.5 6.02002H8.10334C8.10223 6.02003 8.10112 6.02004 8.1 6.02004C8.09889 6.02004 8.09777 6.02003 8.09666 6.02002ZM7.85 1.52002H3.75V5.52002H7.85V1.52002ZM8.35 1.52002V5.52002H12.25V1.52002H8.35ZM3.75 12.4828V15.02H12.25V12.4625C12.221 12.4756 12.1891 12.4828 12.1556 12.4828H3.75ZM3.75 11.9828H12.1556C12.1891 11.9828 12.221 11.9901 12.25 12.0031V10.52H3.75V11.9828ZM3.5 15.52C3.36193 15.52 3.25 15.4081 3.25 15.27V10.27C3.25 10.1319 3.36193 10.02 3.5 10.02H12.5C12.6381 10.02 12.75 10.1319 12.75 10.27V15.27C12.75 15.4081 12.6381 15.52 12.5 15.52H3.5ZM9.25 3.68744C9.25 3.54937 9.36193 3.43744 9.5 3.43744C9.63807 3.43744 9.75 3.54937 9.75 3.68744V4.35273C9.75 4.4908 9.63807 4.60273 9.5 4.60273C9.36193 4.60273 9.25 4.4908 9.25 4.35273V3.68744ZM6.25 3.68744C6.25 3.54937 6.36193 3.43744 6.5 3.43744C6.63807 3.43744 6.75 3.54937 6.75 3.68744V4.35273C6.75 4.4908 6.63807 4.60273 6.5 4.60273C6.36193 4.60273 6.25 4.4908 6.25 4.35273V3.68744ZM7.5 11.52C7.36193 11.52 7.25 11.4081 7.25 11.27C7.25 11.1319 7.36193 11.02 7.5 11.02H8.5C8.63807 11.02 8.75 11.1319 8.75 11.27C8.75 11.4081 8.63807 11.52 8.5 11.52H7.5Z" fill="#1A1D23"/>
</svg>
