<svg width="16" height="17" viewBox="0 0 16 17" fill="none" xmlns="http://www.w3.org/2000/svg">
<path fill-rule="evenodd" clip-rule="evenodd" d="M8.47854 2.37972C8.63272 2.53476 8.72826 2.74894 8.72826 2.98456C8.72826 3.11095 8.70077 3.23117 8.65149 3.3394H12.7826C13.3176 3.3394 13.75 3.7769 13.75 4.31521V15.9281C13.75 16.1993 13.5318 16.42 13.2609 16.42H2.73913C2.46816 16.42 2.25 16.1993 2.25 15.9281V4.31521C2.25 3.7769 2.68242 3.3394 3.21739 3.3394H3.52243C3.47314 3.23117 3.44565 3.11095 3.44565 2.98456C3.44565 2.74894 3.54119 2.53476 3.69537 2.37972C3.54119 2.22468 3.44565 2.0105 3.44565 1.77488C3.44565 1.3048 3.82595 0.920044 4.29348 0.920044H7.88043C8.34797 0.920044 8.72826 1.3048 8.72826 1.77488C8.72826 2.0105 8.63272 2.22468 8.47854 2.37972ZM7.88043 2.12972C8.07051 2.12972 8.22826 1.97012 8.22826 1.77488C8.22826 1.57964 8.07051 1.42004 7.88043 1.42004H4.29348C4.1034 1.42004 3.94565 1.57964 3.94565 1.77488C3.94565 1.97012 4.1034 2.12972 4.29348 2.12972H7.88043ZM7.88043 2.62972H4.29348C4.1034 2.62972 3.94565 2.78932 3.94565 2.98456C3.94565 3.1798 4.1034 3.3394 4.29348 3.3394H7.88043C8.07051 3.3394 8.22826 3.1798 8.22826 2.98456C8.22826 2.78932 8.07051 2.62972 7.88043 2.62972ZM4.29348 3.8394H3.21739C2.95988 3.8394 2.75 4.05174 2.75 4.31521V15.92H13.25V4.31521C13.25 4.05174 13.0401 3.8394 12.7826 3.8394H7.88043H4.29348ZM9.43478 5.77488C9.29671 5.77488 9.18478 5.66295 9.18478 5.52488C9.18478 5.38681 9.29671 5.27488 9.43478 5.27488H11.8261C11.9642 5.27488 12.0761 5.38681 12.0761 5.52488C12.0761 5.66295 11.9642 5.77488 11.8261 5.77488H9.43478ZM4.17391 5.77488C4.03584 5.77488 3.92391 5.66295 3.92391 5.52488C3.92391 5.38681 4.03584 5.27488 4.17391 5.27488H4.8913C5.02938 5.27488 5.1413 5.38681 5.1413 5.52488C5.1413 5.66295 5.02938 5.77488 4.8913 5.77488H4.17391ZM6.08696 5.77488C5.94889 5.77488 5.83696 5.66295 5.83696 5.52488C5.83696 5.38681 5.94889 5.27488 6.08696 5.27488H6.80435C6.94242 5.27488 7.05435 5.38681 7.05435 5.52488C7.05435 5.66295 6.94242 5.77488 6.80435 5.77488H6.08696ZM6.67355 8.01161C6.54912 8.07144 6.39974 8.01907 6.33991 7.89464C6.28008 7.7702 6.33245 7.62082 6.45688 7.56099C6.93467 7.33126 7.45912 7.21041 8 7.21041C9.98768 7.21041 11.5978 8.83944 11.5978 10.8475C11.5978 12.8556 9.98768 14.4846 8 14.4846C6.01232 14.4846 4.40217 12.8556 4.40217 10.8475C4.40217 10.0943 4.62942 9.37491 5.0466 8.77008C5.12499 8.65642 5.28068 8.62784 5.39434 8.70623C5.50799 8.78463 5.53658 8.94032 5.45819 9.05397C5.09819 9.5759 4.90217 10.1965 4.90217 10.8475C4.90217 12.5807 6.28977 13.9846 8 13.9846C9.71023 13.9846 11.0978 12.5807 11.0978 10.8475C11.0978 9.11429 9.71023 7.71041 8 7.71041C7.53455 7.71041 7.0841 7.81421 6.67355 8.01161ZM6.33696 10.8475C6.33696 10.9855 6.22503 11.0975 6.08696 11.0975C5.94889 11.0975 5.83696 10.9855 5.83696 10.8475C5.83696 9.64117 6.80479 8.66198 8 8.66198C8.13807 8.66198 8.25 8.77391 8.25 8.91198C8.25 9.05005 8.13807 9.16198 8 9.16198C7.08225 9.16198 6.33696 9.91602 6.33696 10.8475ZM9.66304 10.8475C9.66304 10.7094 9.77497 10.5975 9.91304 10.5975C10.0511 10.5975 10.163 10.7094 10.163 10.8475C10.163 12.0538 9.19521 13.0329 8 13.0329C7.86193 13.0329 7.75 12.921 7.75 12.7829C7.75 12.6449 7.86193 12.5329 8 12.5329C8.91775 12.5329 9.66304 11.7789 9.66304 10.8475Z" fill="#1A1D23"/>
</svg>
