<svg width="25" height="25" viewBox="0 0 25 25" fill="none" xmlns="http://www.w3.org/2000/svg">
<path fill-rule="evenodd" clip-rule="evenodd" d="M20.7337 10.2496V4.56779C20.7337 4.49014 20.7573 4.41801 20.7977 4.35817C20.7536 4.29666 20.7276 4.22125 20.7276 4.13976C20.7276 3.60418 20.2559 3.15503 19.6739 3.15503H5.31997C4.73746 3.15503 4.26631 3.60346 4.26631 4.13976C4.26631 4.21932 4.24153 4.29309 4.19928 4.35378C4.24153 4.41446 4.26631 4.48823 4.26631 4.56779V10.3092C4.62309 10.2589 4.99215 10.2121 5.37134 10.1689C5.36974 10.1548 5.36893 10.1406 5.36893 10.1261V9.24935C5.36893 8.21369 6.25194 7.37305 7.3207 7.37305H10.8955C11.6082 7.37305 12.2384 7.74669 12.5791 8.303C12.9201 7.74706 13.5502 7.37317 14.2623 7.37317H17.837C18.9066 7.37317 19.7888 8.2128 19.7888 9.24947V10.1127C20.1229 10.1546 20.4388 10.2002 20.7337 10.2496ZM21.4817 10.3934C21.6079 10.4275 21.7077 10.5251 21.7442 10.6516L23.5691 16.9791C23.5995 17.0845 23.5818 17.1897 23.5312 17.2746C23.5446 17.3133 23.552 17.3548 23.552 17.3981V21.8877C23.552 22.0948 23.3841 22.2627 23.177 22.2627H20.0328C19.8257 22.2627 19.6578 22.0948 19.6578 21.8877V19.9881H5.50121V21.8877C5.50121 22.0948 5.33332 22.2627 5.12621 22.2627H1.98141C1.7743 22.2627 1.60641 22.0948 1.60641 21.8877V17.3981C1.60641 17.3546 1.6138 17.3129 1.62738 17.2741C1.57669 17.1887 1.55922 17.0828 1.59039 16.9771L3.45465 10.6495C3.47196 10.5907 3.50295 10.5384 3.54378 10.4958C3.52606 10.4523 3.51631 10.4046 3.51631 10.3547V4.56779C3.51631 4.48823 3.54108 4.41446 3.58333 4.35378C3.54108 4.29309 3.51631 4.21932 3.51631 4.13976C3.51631 3.21292 4.27751 2.45733 5.22099 2.40763C5.23555 2.40591 5.25037 2.40503 5.26539 2.40503H19.8932C19.9549 2.40503 20.0131 2.41992 20.0644 2.4463C20.8681 2.61875 21.4776 3.31136 21.4776 4.13976C21.4776 4.21741 21.454 4.28954 21.4136 4.34938C21.4577 4.41089 21.4837 4.4863 21.4837 4.56779V10.3547C21.4837 10.3678 21.483 10.3807 21.4817 10.3934ZM13.0605 9.76746C15.2326 9.76567 17.3224 9.85358 19.0388 10.0279V9.24947C19.0388 8.63554 18.5005 8.12317 17.837 8.12317H14.2623C13.6003 8.12317 13.0605 8.6371 13.0605 9.24947V9.76746ZM6.11893 10.0894C7.98985 9.90459 10.0606 9.80035 12.0973 9.77408V9.24935C12.0973 8.63588 11.5581 8.12305 10.8955 8.12305H7.3207C6.65813 8.12305 6.11893 8.63638 6.11893 9.24935V10.0894ZM22.802 17.458H2.35641V21.5127H4.75121V19.6131C4.75121 19.406 4.91911 19.2381 5.12621 19.2381H20.0328C20.2399 19.2381 20.4078 19.406 20.4078 19.6131V21.5127H22.802V17.458ZM2.45152 16.708H22.7103L21.0861 11.0763C17.4108 10.3413 9.30446 10.3163 4.10667 11.0902L2.45152 16.708Z" fill="black"/>
</svg>
