<svg width="25" height="25" viewBox="0 0 25 25" fill="none" xmlns="http://www.w3.org/2000/svg">
<path fill-rule="evenodd" clip-rule="evenodd" d="M12.5018 19.3217C10.2078 19.3217 8.22201 19.2444 6.54354 19.0892V20.4318C6.54354 21.1912 5.92793 21.8068 5.16854 21.8068H3.06343C2.31369 21.8068 1.70216 21.2061 1.68865 20.4565L1.59227 15.107C1.56925 14.4936 1.57669 14.054 1.61919 13.7818C1.69207 13.3148 1.98922 12.5451 2.5145 11.4464C1.35191 11.0148 0.877323 10.2615 1.24322 9.25868C1.61657 8.23548 2.51189 7.961 3.76562 8.38816C4.5659 6.64102 5.08977 5.56262 5.34766 5.13428C5.71638 4.52184 7.91915 4.18405 12.5228 3.90588C17.0809 4.18405 19.2836 4.52184 19.6524 5.13428C19.9102 5.56262 20.4341 6.64102 21.2344 8.38816C22.4881 7.961 23.3834 8.23548 23.7568 9.25868C24.1227 10.2615 23.6481 11.0148 22.4855 11.4464C23.0108 12.5451 23.3079 13.3148 23.3808 13.7818C23.4233 14.0538 23.4307 14.4928 23.4037 15.107L23.3109 20.4565C23.2974 21.2061 22.6859 21.8068 21.9361 21.8068H19.813C19.0537 21.8068 18.438 21.1912 18.438 20.4318V19.0909C16.7643 19.2449 14.7859 19.3217 12.5018 19.3217ZM19.188 20.4318C19.188 20.7769 19.4679 21.0568 19.813 21.0568H21.9361C22.2769 21.0568 22.5549 20.7838 22.561 20.443L22.6029 18.1205C22.0474 18.4987 21.1441 18.7574 19.9072 18.9255C19.6749 18.957 19.4352 18.9867 19.188 19.0145V20.4318ZM5.09282 18.9255C3.85577 18.7574 2.95238 18.4986 2.39664 18.118L2.43853 20.443C2.44467 20.7838 2.72264 21.0568 3.06343 21.0568H5.16854C5.51371 21.0568 5.79354 20.7769 5.79354 20.4318V19.0124C5.55288 18.9852 5.31931 18.9563 5.09282 18.9255ZM19.8062 18.1823C21.5721 17.9423 22.4494 17.5242 22.5056 17.0783C22.6634 15.3999 22.7066 14.3252 22.6398 13.8974C22.5742 13.4769 22.2333 12.6277 21.6226 11.3861L21.4216 10.9774L21.8612 10.8586C22.9565 10.5624 23.283 10.1483 23.0522 9.51576C22.8197 8.87846 22.2672 8.75611 21.184 9.20935L20.8489 9.3496L20.6981 9.01903C19.8291 7.11363 19.2622 5.94026 19.0098 5.52112C18.853 5.26066 16.5017 4.90011 12.5228 4.65449C8.49828 4.90011 6.147 5.26066 5.99019 5.52112C5.73785 5.94026 5.17096 7.11363 4.3019 9.01903L4.15113 9.3496L3.81596 9.20935C2.73279 8.75611 2.18032 8.87846 1.94778 9.51576C1.71699 10.1483 2.04352 10.5624 3.13878 10.8586L3.57841 10.9774L3.37741 11.3861C2.76671 12.6277 2.42585 13.4769 2.36022 13.8974C2.29344 14.3252 2.33658 15.3999 2.49319 17.0667C2.55056 17.5242 3.4279 17.9423 5.19382 18.1823C7.10222 18.4417 9.53893 18.5717 12.5018 18.5717C15.463 18.5717 17.8985 18.4416 19.8062 18.1823ZM5.19286 16.0479C4.26252 16.0479 3.50834 15.2938 3.50834 14.3634C3.50834 13.4331 4.26252 12.6789 5.19286 12.6789C6.1232 12.6789 6.87739 13.4331 6.87739 14.3634C6.87739 15.2938 6.1232 16.0479 5.19286 16.0479ZM5.19286 15.2979C5.70898 15.2979 6.12739 14.8795 6.12739 14.3634C6.12739 13.8473 5.70898 13.4289 5.19286 13.4289C4.67674 13.4289 4.25834 13.8473 4.25834 14.3634C4.25834 14.8795 4.67674 15.2979 5.19286 15.2979ZM19.8595 16.0479C18.9292 16.0479 18.175 15.2938 18.175 14.3634C18.175 13.4331 18.9292 12.6789 19.8595 12.6789C20.7899 12.6789 21.5441 13.4331 21.5441 14.3634C21.5441 15.2938 20.7899 16.0479 19.8595 16.0479ZM19.8595 15.2979C20.3757 15.2979 20.7941 14.8795 20.7941 14.3634C20.7941 13.8473 20.3757 13.4289 19.8595 13.4289C19.3434 13.4289 18.925 13.8473 18.925 14.3634C18.925 14.8795 19.3434 15.2979 19.8595 15.2979ZM9.15218 14.2203V13.4703H15.8478V14.2203H9.15218ZM9.15218 16.1333V15.3833H15.8478V16.1333H9.15218Z" fill="black"/>
</svg>
