<svg width="24" height="25" viewBox="0 0 24 25" fill="none" xmlns="http://www.w3.org/2000/svg">
<path fill-rule="evenodd" clip-rule="evenodd" d="M9.21082 13.1562V15.9718C9.21082 16.1789 9.04293 16.3468 8.83582 16.3468H1.82581V21.7681H11.5186V20.7562C11.5186 20.549 11.6865 20.3812 11.8936 20.3812C12.1007 20.3812 12.2686 20.549 12.2686 20.7562V21.7681H16.2511V20.7562C16.2511 20.549 16.419 20.3812 16.6261 20.3812C16.8332 20.3812 17.0011 20.549 17.0011 20.7562V21.7681H22.5531V1.43372H17.0011V7.35818C17.0011 7.56529 16.8332 7.73318 16.6261 7.73318C16.419 7.73318 16.2511 7.56529 16.2511 7.35818V1.43372H9.21082V12.4062H16.95C17.1571 12.4062 17.325 12.5741 17.325 12.7812C17.325 12.9883 17.1571 13.1562 16.95 13.1562H9.21082ZM1.82581 15.5968H8.46082V1.43372H1.82581V5.36809H2.15166C2.35877 5.36809 2.52666 5.53598 2.52666 5.74309C2.52666 5.9502 2.35877 6.11809 2.15166 6.11809H0.75C0.542893 6.11809 0.375 5.9502 0.375 5.74309C0.375 5.53598 0.542893 5.36809 0.75 5.36809H1.07581V1.05872C1.07581 0.851609 1.24371 0.683716 1.45081 0.683716H22.9281C23.1352 0.683716 23.3031 0.851609 23.3031 1.05872V22.1431C23.3031 22.3502 23.1352 22.5181 22.9281 22.5181H17.0011V23.53C17.0011 23.7371 16.8332 23.905 16.6261 23.905C16.419 23.905 16.2511 23.7371 16.2511 23.53V22.5181H12.2686V23.53C12.2686 23.7371 12.1007 23.905 11.8936 23.905C11.6865 23.905 11.5186 23.7371 11.5186 23.53V22.5181H1.45081C1.24371 22.5181 1.07581 22.3502 1.07581 22.1431V11.987H0.75C0.542893 11.987 0.375 11.8191 0.375 11.612C0.375 11.4049 0.542893 11.237 0.75 11.237H1.35969C1.38886 11.2298 1.41939 11.2259 1.45081 11.2259C1.48224 11.2259 1.51277 11.2298 1.54194 11.237H2.15166C2.35877 11.237 2.52666 11.4049 2.52666 11.612C2.52666 11.8191 2.35877 11.987 2.15166 11.987H1.82581V15.5968Z" fill="black"/>
</svg>
