<svg width="24" height="25" viewBox="0 0 24 25" fill="none" xmlns="http://www.w3.org/2000/svg">
<path fill-rule="evenodd" clip-rule="evenodd" d="M16.5717 18.998L16.1657 21.9572H17.6707C17.8778 21.9572 18.0457 22.1251 18.0457 22.3322C18.0457 22.5393 17.8778 22.7072 17.6707 22.7072H6.13604C5.92893 22.7072 5.76104 22.5393 5.76104 22.3322C5.76104 22.1251 5.92893 21.9572 6.13604 21.9572H9.493C6.24763 20.5535 3.94082 17.3258 3.79763 13.5322C3.14942 13.5287 2.6248 12.9895 2.6248 12.3337V2.60368C2.6248 1.94571 3.15289 1.40515 3.80406 1.40515H8.46793C9.11969 1.40515 9.64719 1.94548 9.64719 2.60368V12.3337C9.64719 12.492 9.61668 12.6434 9.56128 12.7822H10.4197C10.4221 11.8764 10.7714 11.0968 11.3826 11.0968H20.7007C21.3139 11.0968 21.664 11.882 21.664 12.7915C21.664 12.7945 21.664 12.7975 21.6639 12.8005C21.8143 12.8493 21.923 12.9906 21.923 13.1572C21.923 13.3643 21.7551 13.5322 21.548 13.5322H20.825C20.6707 16.1279 18.9256 18.2864 16.5717 18.998ZM15.7902 19.1765C15.4934 19.223 15.1895 19.2471 14.8799 19.2471C14.6728 19.2471 14.5049 19.0792 14.5049 18.8721C14.5049 18.665 14.6728 18.4971 14.8799 18.4971C15.3003 18.4971 15.709 18.446 16.1006 18.3494C16.127 18.3394 16.1547 18.3322 16.1832 18.3283C18.313 17.7651 19.9165 15.8539 20.0734 13.5322H6.50808H4.54822C4.73987 18.2202 8.50876 21.9572 13.1258 21.9572H15.4087L15.7902 19.1765ZM20.914 12.7822C20.912 12.2455 20.734 11.8468 20.7007 11.8468H11.3826C11.3495 11.8468 11.1717 12.2454 11.1697 12.7822H20.914ZM8.46793 12.7822C8.70139 12.7822 8.89719 12.5816 8.89719 12.3337V2.60368C8.89719 2.35571 8.70139 2.15515 8.46793 2.15515H3.80406C3.57107 2.15515 3.3748 2.35605 3.3748 2.60368V12.3337C3.3748 12.5813 3.57107 12.7822 3.80406 12.7822H4.07634H8.46793Z" fill="black"/>
</svg>
